<svg width="32" height="32" viewBox="0 0 32 32" fill="none" xmlns="http://www.w3.org/2000/svg">
<path d="M20.8 11.2L21.5071 11.9071L21.5071 11.9071L20.8 11.2ZM28 4H29C29 3.44772 28.5523 3 28 3V4ZM27 7.6C27 8.15229 27.4477 8.6 28 8.6C28.5523 8.6 29 8.15229 29 7.6H27ZM24.4 3C23.8477 3 23.4 3.44772 23.4 4C23.4 4.55228 23.8477 5 24.4 5V3ZM22.2 18.4C22.2 23.1497 18.3497 27 13.6 27V29C19.4542 29 24.2 24.2542 24.2 18.4H22.2ZM13.6 27C8.85035 27 5 23.1497 5 18.4H3C3 24.2542 7.74578 29 13.6 29V27ZM5 18.4C5 13.6504 8.85035 9.8 13.6 9.8V7.8C7.74578 7.8 3 12.5458 3 18.4H5ZM21.5071 11.9071L28.7071 4.70711L27.2929 3.29289L20.0929 10.4929L21.5071 11.9071ZM27 4V7.6H29V4H27ZM28 3H24.4V5H28V3ZM13.6 9.8C15.9751 9.8 18.1237 10.7615 19.6811 12.3189L21.0953 10.9047C19.1782 8.98754 16.5268 7.8 13.6 7.8V9.8ZM19.6811 12.3189C21.2385 13.8763 22.2 16.0249 22.2 18.4H24.2C24.2 15.4732 23.0125 12.8218 21.0953 10.9047L19.6811 12.3189ZM20.0929 10.4929L19.6811 10.9047L21.0953 12.3189L21.5071 11.9071L20.0929 10.4929Z" fill="white"/>
</svg>
