<svg width="50" height="50" viewBox="0 0 50 50" fill="none" xmlns="http://www.w3.org/2000/svg">
<rect width="50" height="50" rx="25" fill="#F68323"/>
<g clip-path="url(#clip0_18_1245)">
<path d="M12.2 15.4004C11.1475 15.4004 10.28 16.2679 10.28 17.3204V27.0404C10.2825 27.0804 10.29 27.1204 10.3 27.1604C10.3 27.1679 10.3 27.1729 10.3 27.1804C10.0125 27.6329 9.7775 28.1154 9.6 28.6404C9.2025 29.8129 9.0325 31.1579 9 32.6804V33.3204C9 33.3404 9 33.3604 9 33.3804V41.0004H13.48V38.4404C13.48 37.9079 13.61 37.6304 13.78 37.4604C13.95 37.2904 14.2275 37.1604 14.76 37.1604H35.24C35.7725 37.1604 36.05 37.2904 36.22 37.4604C36.39 37.6304 36.52 37.9079 36.52 38.4404V41.0004H41V33.4204C41.0025 33.3879 41.0025 33.3529 41 33.3204C41 33.1004 41.005 32.8929 41 32.6804C40.9675 31.1579 40.7975 29.8129 40.4 28.6404C40.2225 28.1204 39.985 27.6479 39.7 27.2004C39.7125 27.1479 39.72 27.0954 39.72 27.0404V17.3204C39.72 16.2679 38.8525 15.4004 37.8 15.4004H12.2ZM12.2 16.6804H37.8C38.16 16.6804 38.44 16.9604 38.44 17.3204V25.7404C38.2825 25.6079 38.115 25.4804 37.94 25.3604C37.5125 25.0654 37.0475 24.7904 36.52 24.5604V21.8004C36.52 21.3504 36.225 21.0004 35.9 20.7804C35.575 20.5604 35.1775 20.4079 34.68 20.2804C33.685 20.0254 32.2875 19.8804 30.44 19.8804C28.5925 19.8804 27.195 20.0254 26.2 20.2804C25.715 20.4054 25.32 20.5479 25 20.7604C24.68 20.5479 24.285 20.4054 23.8 20.2804C22.805 20.0254 21.4075 19.8804 19.56 19.8804C17.7125 19.8804 16.315 20.0254 15.32 20.2804C14.8225 20.4079 14.425 20.5604 14.1 20.7804C13.775 21.0004 13.48 21.3504 13.48 21.8004V24.5604C12.9525 24.7904 12.4875 25.0654 12.06 25.3604C11.885 25.4804 11.7175 25.6079 11.56 25.7404V17.3204C11.56 16.9604 11.84 16.6804 12.2 16.6804ZM19.56 21.1604C21.34 21.1604 22.66 21.3104 23.48 21.5204C23.89 21.6254 24.1725 21.7529 24.3 21.8404C24.3525 21.8754 24.355 21.8804 24.36 21.8804V23.0804C20.1525 23.1079 17.0375 23.4229 14.76 24.1204V21.8804C14.765 21.8804 14.7675 21.8754 14.82 21.8404C14.9475 21.7529 15.23 21.6254 15.64 21.5204C16.46 21.3104 17.78 21.1604 19.56 21.1604ZM30.44 21.1604C32.22 21.1604 33.54 21.3104 34.36 21.5204C34.77 21.6254 35.0525 21.7529 35.18 21.8404C35.2325 21.8754 35.235 21.8804 35.24 21.8804V24.1204C32.9625 23.4229 29.8475 23.1079 25.64 23.0804V21.8804C25.645 21.8804 25.6475 21.8754 25.7 21.8404C25.8275 21.7529 26.11 21.6254 26.52 21.5204C27.34 21.3104 28.66 21.1604 30.44 21.1604ZM24.88 24.3604C24.9475 24.3704 25.0125 24.3704 25.08 24.3604C25.1 24.3604 25.12 24.3604 25.14 24.3604C31.545 24.3704 35.245 25.0404 37.22 26.4004C38.215 27.0854 38.8175 27.9354 39.2 29.0604C39.5325 30.0404 39.6675 31.2479 39.7 32.6804H10.3C10.3325 31.2479 10.4675 30.0404 10.8 29.0604C11.1825 27.9354 11.785 27.0854 12.78 26.4004C14.755 25.0379 18.4625 24.3679 24.88 24.3604ZM10.28 33.9604H39.72V39.7204H37.8V38.4404C37.8 37.6929 37.61 37.0104 37.14 36.5404C36.67 36.0704 35.9875 35.8804 35.24 35.8804H14.76C14.0125 35.8804 13.33 36.0704 12.86 36.5404C12.39 37.0104 12.2 37.6929 12.2 38.4404V39.7204H10.28V33.9604Z" fill="#172243"/>
</g>
<defs>
<clipPath id="clip0_18_1245">
<rect width="32" height="32" fill="white" transform="translate(9 9)"/>
</clipPath>
</defs>
</svg>
