<svg width="58" height="58" viewBox="0 0 58 58" fill="none" xmlns="http://www.w3.org/2000/svg">
<circle opacity="0.9" cx="28.8515" cy="28.8515" r="28.8515" fill="#FFDCBE"/>
<path d="M29.6218 14.7822C31.5655 14.7822 33.4295 15.5543 34.8039 16.9287C36.1782 18.3031 36.9503 20.1671 36.9503 22.1107C36.9503 24.0544 36.1782 25.9184 34.8039 27.2928C33.4295 28.6671 31.5655 29.4392 29.6218 29.4392C27.6782 29.4392 25.8142 28.6671 24.4398 27.2928C23.0654 25.9184 22.2933 24.0544 22.2933 22.1107C22.2933 20.1671 23.0654 18.3031 24.4398 16.9287C25.8142 15.5543 27.6782 14.7822 29.6218 14.7822ZM29.6218 33.1035C37.7198 33.1035 44.2788 36.383 44.2788 40.432V44.0962H14.9648V40.432C14.9648 36.383 21.5238 33.1035 29.6218 33.1035Z" fill="#F68323"/>
</svg>
