<svg width="50" height="50" viewBox="0 0 50 50" fill="none" xmlns="http://www.w3.org/2000/svg">
<rect width="50" height="50" rx="25" fill="#F68323"/>
<path d="M13 26.4436C13 26.3412 13 26.29 13.0028 26.2468C13.0463 25.5785 13.5786 25.0463 14.2468 25.0028C14.29 25 14.3412 25 14.4436 25H35.5564C35.6588 25 35.71 25 35.7532 25.0028C36.4215 25.0463 36.9537 25.5785 36.9972 26.2468C37 26.29 37 26.3412 37 26.4436C37 26.9712 37 27.2349 36.9812 27.5303C36.7031 31.9139 32.9773 35.7823 28.6071 36.2248C28.3127 36.2547 28.1411 36.2611 27.7976 36.274C26.8187 36.3108 25.8657 36.3333 25 36.3333C24.1343 36.3333 23.1813 36.3108 22.2024 36.274C21.859 36.2611 21.6873 36.2547 21.3929 36.2248C17.0227 35.7823 13.297 31.9139 13.0187 27.5303C13 27.2349 13 26.9712 13 26.4436Z" stroke="#172243" stroke-width="1.6"/>
<path opacity="0.5" d="M17.0013 35.667L15.668 38.3337" stroke="#172243" stroke-width="1.6" stroke-linecap="round"/>
<path opacity="0.5" d="M33 35.667L34.3333 38.3337" stroke="#172243" stroke-width="1.6" stroke-linecap="round"/>
<path d="M11.668 25H38.3346" stroke="#172243" stroke-width="1.6" stroke-linecap="round"/>
<path opacity="0.5" d="M13 26.3336V14.8472C13 13.0908 14.4238 11.667 16.1802 11.667C17.4806 11.667 18.65 12.4587 19.133 13.6661L19.6667 14.8472" stroke="#172243" stroke-width="1.6" stroke-linecap="round"/>
<path d="M17.4612 20.6558L16.5308 21.0224C16.6301 21.2742 16.8271 21.475 17.0769 21.579C17.3268 21.683 17.6081 21.6813 17.8566 21.5743L17.4612 20.6558ZM25.4089 17.2344L25.8043 18.1529C26.3005 17.9393 26.5373 17.3704 26.3393 16.8678L25.4089 17.2344ZM18.3916 20.2892C18.0693 19.4714 18.049 18.5217 18.4098 17.6331L16.5567 16.8806C15.9963 18.2606 16.0266 19.7426 16.5308 21.0224L18.3916 20.2892ZM25.0135 16.3159L17.0658 19.7373L17.8566 21.5743L25.8043 18.1529L25.0135 16.3159ZM22.7102 15.7571C23.539 16.1112 24.1565 16.7836 24.4785 17.601L26.3393 16.8678C25.8349 15.5875 24.8498 14.4963 23.4959 13.9179L22.7102 15.7571ZM18.4098 17.6331C18.7487 16.7986 19.3581 16.1788 20.0766 15.8291L19.2012 14.0308C18.0449 14.5937 17.0838 15.5827 16.5567 16.8806L18.4098 17.6331ZM20.0766 15.8291C20.8865 15.4348 21.8338 15.3827 22.7102 15.7571L23.4959 13.9179C22.0589 13.304 20.5054 13.3959 19.2012 14.0308L20.0766 15.8291Z" fill="#172243"/>
</svg>
