<svg width="50" height="50" viewBox="0 0 50 50" fill="none" xmlns="http://www.w3.org/2000/svg">
<rect width="50" height="50" rx="25" fill="#F68323"/>
<path d="M30.2484 14.5184C29.4724 14.5 28.5744 14.5 27.5184 14.5H22.4784C18.9501 14.5 17.1859 14.5 15.8383 15.1867C14.6529 15.7907 13.6891 16.7544 13.0851 17.9399C12.3984 19.2875 12.3984 21.0517 12.3984 24.58V25.42C12.3984 28.9483 12.3984 30.7125 13.0851 32.0601C13.6891 33.2456 14.6529 34.2093 15.8383 34.8133C17.1859 35.5 18.9501 35.5 22.4784 35.5H27.5184C28.5744 35.5 29.4724 35.5 30.2484 35.4816M30.2484 14.5184C32.0654 14.5615 33.2143 14.7055 34.1586 15.1867C35.344 15.7907 36.3078 16.7544 36.9118 17.9399C37.5984 19.2875 37.5984 21.0517 37.5984 24.58V25.42C37.5984 28.9483 37.5984 30.7125 36.9118 32.0601C36.3078 33.2456 35.344 34.2093 34.1586 34.8133C33.2143 35.2945 32.0654 35.4385 30.2484 35.4816M30.2484 14.5184V35.4816" stroke="#172243" stroke-width="2"/>
</svg>
