<svg width="797" height="574" viewBox="0 0 797 574" fill="none" xmlns="http://www.w3.org/2000/svg">
<rect x="34" y="34" width="192" height="56" rx="28" fill="#172243"/>
<path d="M75.1341 62.1892C74.7581 61.7847 74.1254 61.7615 73.7208 62.1374C73.3163 62.5134 73.2931 63.1461 73.669 63.5507L75.1341 62.1892ZM77.3107 66.0004L76.5781 66.6811C76.7673 66.8847 77.0327 67.0004 77.3107 67.0004C77.5886 67.0004 77.854 66.8847 78.0432 66.6811L77.3107 66.0004ZM84.7341 59.4811C85.1101 59.0766 85.0869 58.4438 84.6823 58.0679C84.2777 57.6919 83.645 57.7151 83.269 58.1197L84.7341 59.4811ZM73.669 63.5507L76.5781 66.6811L78.0432 65.3197L75.1341 62.1892L73.669 63.5507ZM78.0432 66.6811L84.7341 59.4811L83.269 58.1197L76.5781 65.3197L78.0432 66.6811ZM87.8016 62.0004C87.8016 66.75 83.9512 70.6004 79.2016 70.6004V72.6004C85.0558 72.6004 89.8016 67.8546 89.8016 62.0004H87.8016ZM79.2016 70.6004C74.4519 70.6004 70.6016 66.75 70.6016 62.0004H68.6016C68.6016 67.8546 73.3473 72.6004 79.2016 72.6004V70.6004ZM70.6016 62.0004C70.6016 57.2507 74.4519 53.4004 79.2016 53.4004V51.4004C73.3473 51.4004 68.6016 56.1462 68.6016 62.0004H70.6016ZM79.2016 53.4004C83.9512 53.4004 87.8016 57.2507 87.8016 62.0004H89.8016C89.8016 56.1462 85.0558 51.4004 79.2016 51.4004V53.4004Z" fill="white"/>
<path d="M107.562 69.5V54.1H118.958V56.124H109.872V60.854H115.856V62.812H109.872V69.5H107.562ZM124.031 69.698C122.931 69.698 121.934 69.4413 121.039 68.928C120.159 68.4147 119.455 67.718 118.927 66.838C118.414 65.958 118.157 64.9753 118.157 63.89C118.157 62.8193 118.407 61.8513 118.905 60.986C119.404 60.106 120.079 59.4093 120.929 58.896C121.78 58.368 122.726 58.104 123.767 58.104C124.809 58.104 125.733 58.368 126.539 58.896C127.346 59.4093 127.984 60.1133 128.453 61.008C128.937 61.888 129.179 62.8853 129.179 64V64.616H120.357C120.475 65.232 120.702 65.782 121.039 66.266C121.391 66.75 121.831 67.1313 122.359 67.41C122.902 67.6887 123.489 67.828 124.119 67.828C124.662 67.828 125.183 67.7473 125.681 67.586C126.195 67.41 126.62 67.1607 126.957 66.838L128.365 68.224C127.705 68.7227 127.023 69.0967 126.319 69.346C125.63 69.5807 124.867 69.698 124.031 69.698ZM120.379 62.966H127.001C126.913 62.3793 126.708 61.866 126.385 61.426C126.077 60.9713 125.689 60.6193 125.219 60.37C124.765 60.106 124.266 59.974 123.723 59.974C123.166 59.974 122.653 60.0987 122.183 60.348C121.714 60.5973 121.318 60.9493 120.995 61.404C120.687 61.844 120.482 62.3647 120.379 62.966ZM134.666 69.698C133.86 69.698 133.148 69.5587 132.532 69.28C131.916 68.9867 131.432 68.5833 131.08 68.07C130.728 67.5567 130.552 66.9627 130.552 66.288C130.552 65.232 130.956 64.4033 131.762 63.802C132.569 63.186 133.676 62.878 135.084 62.878C136.184 62.878 137.204 63.0907 138.142 63.516V62.328C138.142 61.5213 137.908 60.92 137.438 60.524C136.984 60.128 136.309 59.93 135.414 59.93C134.901 59.93 134.366 60.0107 133.808 60.172C133.251 60.3187 132.628 60.5533 131.938 60.876L131.124 59.226C131.975 58.83 132.767 58.544 133.5 58.368C134.234 58.1773 134.974 58.082 135.722 58.082C137.174 58.082 138.296 58.4267 139.088 59.116C139.895 59.8053 140.298 60.788 140.298 62.064V69.5H138.142V68.532C137.644 68.928 137.108 69.2213 136.536 69.412C135.964 69.6027 135.341 69.698 134.666 69.698ZM132.664 66.244C132.664 66.7867 132.892 67.2267 133.346 67.564C133.816 67.9013 134.424 68.07 135.172 68.07C135.759 68.07 136.294 67.982 136.778 67.806C137.277 67.63 137.732 67.3587 138.142 66.992V65.1C137.717 64.8507 137.27 64.6747 136.8 64.572C136.346 64.4547 135.832 64.396 135.26 64.396C134.454 64.396 133.816 64.5647 133.346 64.902C132.892 65.2247 132.664 65.672 132.664 66.244ZM147.307 69.698C146.222 69.698 145.393 69.4487 144.821 68.95C144.249 68.4367 143.963 67.696 143.963 66.728V60.15H141.587V58.302H143.963V55.442L146.141 54.914V58.302H149.441V60.15H146.141V66.222C146.141 66.794 146.266 67.2047 146.515 67.454C146.779 67.6887 147.204 67.806 147.791 67.806C148.099 67.806 148.37 67.784 148.605 67.74C148.854 67.696 149.118 67.63 149.397 67.542V69.39C149.104 69.4927 148.759 69.566 148.363 69.61C147.982 69.6687 147.63 69.698 147.307 69.698ZM155.396 69.72C154.53 69.72 153.768 69.5367 153.108 69.17C152.448 68.8033 151.934 68.29 151.568 67.63C151.201 66.9553 151.018 66.1853 151.018 65.32V58.302H153.196V64.946C153.196 65.826 153.445 66.5227 153.944 67.036C154.457 67.5493 155.139 67.806 155.99 67.806C156.591 67.806 157.126 67.6813 157.596 67.432C158.065 67.168 158.446 66.8013 158.74 66.332V58.302H160.94V69.5H158.74V68.356C157.874 69.2653 156.76 69.72 155.396 69.72ZM163.544 69.5V58.302H165.744V59.732C166.096 59.204 166.529 58.7933 167.042 58.5C167.57 58.192 168.164 58.038 168.824 58.038C169.279 58.0527 169.653 58.1187 169.946 58.236V60.216C169.741 60.128 169.528 60.0693 169.308 60.04C169.088 59.996 168.868 59.974 168.648 59.974C168.003 59.974 167.431 60.15 166.932 60.502C166.433 60.8393 166.037 61.338 165.744 61.998V69.5H163.544ZM176.432 69.698C175.332 69.698 174.334 69.4413 173.44 68.928C172.56 68.4147 171.856 67.718 171.328 66.838C170.814 65.958 170.558 64.9753 170.558 63.89C170.558 62.8193 170.807 61.8513 171.306 60.986C171.804 60.106 172.479 59.4093 173.33 58.896C174.18 58.368 175.126 58.104 176.168 58.104C177.209 58.104 178.133 58.368 178.94 58.896C179.746 59.4093 180.384 60.1133 180.854 61.008C181.338 61.888 181.58 62.8853 181.58 64V64.616H172.758C172.875 65.232 173.102 65.782 173.44 66.266C173.792 66.75 174.232 67.1313 174.76 67.41C175.302 67.6887 175.889 67.828 176.52 67.828C177.062 67.828 177.583 67.7473 178.082 67.586C178.595 67.41 179.02 67.1607 179.358 66.838L180.766 68.224C180.106 68.7227 179.424 69.0967 178.72 69.346C178.03 69.5807 177.268 69.698 176.432 69.698ZM172.78 62.966H179.402C179.314 62.3793 179.108 61.866 178.786 61.426C178.478 60.9713 178.089 60.6193 177.62 60.37C177.165 60.106 176.666 59.974 176.124 59.974C175.566 59.974 175.053 60.0987 174.584 60.348C174.114 60.5973 173.718 60.9493 173.396 61.404C173.088 61.844 172.882 62.3647 172.78 62.966ZM188.866 69.676C187.825 69.676 186.871 69.4193 186.006 68.906C185.141 68.3927 184.459 67.7033 183.96 66.838C183.461 65.958 183.212 64.9753 183.212 63.89C183.212 62.8047 183.461 61.8293 183.96 60.964C184.473 60.0987 185.163 59.4093 186.028 58.896C186.893 58.3827 187.854 58.126 188.91 58.126C189.526 58.126 190.12 58.2213 190.692 58.412C191.264 58.6027 191.792 58.8813 192.276 59.248V54.1L194.476 53.682V69.5H192.298V68.422C191.345 69.258 190.201 69.676 188.866 69.676ZM189.152 67.762C189.797 67.762 190.384 67.6447 190.912 67.41C191.455 67.1753 191.909 66.838 192.276 66.398V61.36C191.909 60.9493 191.455 60.6267 190.912 60.392C190.384 60.1427 189.797 60.018 189.152 60.018C188.448 60.018 187.81 60.1867 187.238 60.524C186.666 60.8613 186.211 61.3233 185.874 61.91C185.537 62.482 185.368 63.1347 185.368 63.868C185.368 64.6013 185.537 65.2613 185.874 65.848C186.211 66.4347 186.666 66.904 187.238 67.256C187.81 67.5933 188.448 67.762 189.152 67.762Z" fill="white"/>
</svg>
