<svg width="32" height="33" viewBox="0 0 32 33" fill="none" xmlns="http://www.w3.org/2000/svg">
<g clip-path="url(#clip0_18_1178)">
<path d="M32 16.5605C32 7.72398 24.8366 0.560547 16 0.560547C7.16344 0.560547 0 7.72398 0 16.5605C0 24.5466 5.851 31.1659 13.5 32.3662V21.1855H9.4375V16.5605H13.5V13.0355C13.5 9.02555 15.8887 6.81055 19.5434 6.81055C21.294 6.81055 23.125 7.12305 23.125 7.12305V11.0605H21.1074C19.1199 11.0605 18.5 12.2939 18.5 13.5592V16.5605H22.9375L22.2281 21.1855H18.5V32.3662C26.1491 31.1659 32 24.5466 32 16.5605Z" fill="#1877F2"/>
<path d="M22.2281 21.1855L22.9375 16.5605H18.5V13.5592C18.5 12.2939 19.1198 11.0605 21.1074 11.0605H23.125V7.12305C23.125 7.12305 21.2939 6.81055 19.5434 6.81055C15.8887 6.81055 13.5 9.02555 13.5 13.0355V16.5605H9.4375V21.1855H13.5V32.3662C14.3146 32.494 15.1495 32.5605 16 32.5605C16.8505 32.5605 17.6854 32.494 18.5 32.3662V21.1855H22.2281Z" fill="white"/>
</g>
<defs>
<clipPath id="clip0_18_1178">
<rect width="32" height="32" fill="white" transform="translate(0 0.560547)"/>
</clipPath>
</defs>
</svg>
