<svg width="42" height="42" viewBox="0 0 42 42" fill="none" xmlns="http://www.w3.org/2000/svg">
<rect width="42" height="42" rx="21" fill="#F68323"/>
<path d="M31.5 19.241C31.5 24.3203 23.943 31.3399 21.6511 33.3521C21.274 33.6832 20.726 33.6832 20.3489 33.3521C18.057 31.3399 10.5 24.3203 10.5 19.241C10.5 13.2539 15.201 8.40039 21 8.40039C26.799 8.40039 31.5 13.2539 31.5 19.241Z" stroke="#172243" stroke-width="2"/>
<path d="M24.5 17.5115C24.5 19.5242 22.933 21.1559 21 21.1559C19.067 21.1559 17.5 19.5242 17.5 17.5115C17.5 15.4987 19.067 13.867 21 13.867C22.933 13.867 24.5 15.4987 24.5 17.5115Z" stroke="#172243" stroke-width="2"/>
</svg>
